Coordinates
version=1
nRows=32
nColumns=22
inDegrees=yes

Units are S.I. units (second, meters, Newtons, ...)
If the header above contains a line with 'inDegrees', this indicates whether rotational values are in degrees (yes) or radians (no).

endheader
time	pelvis_tilt	pelvis_list	pelvis_rotation	pelvis_tx	pelvis_ty	pelvis_tz	hip_flexion_r	hip_adduction_r	hip_rotation_r	knee_angle_r	ankle_angle_r	subtalar_angle_r	hip_flexion_l	hip_adduction_l	hip_rotation_l	knee_angle_l	ankle_angle_l	subtalar_angle_l	lumbar_extension	lumbar_bending	lumbar_rotation
      2.24000000	     -5.66280751	     -8.35803776	     22.19665268	      0.53745664	      0.93454924	      0.59421329	      8.48699047	      0.39662868	     -4.41429138	    -56.19138841	     -4.09255772	     14.96362773	     33.15850598	     -1.64626274	     -6.68630736	    -27.21869320	      4.37226362	    -12.52515613	     -1.27248652	      1.43956907	      0.81617536
      2.25000000	     -5.46847402	     -8.29589801	     22.92655206	      0.54453144	      0.93600108	      0.58735235	      9.48912163	     -0.00778032	     -4.69224677	    -57.52777526	     -3.56919600	     14.23276172	     32.28371478	     -1.10885023	     -6.15594527	    -27.03100564	      4.83002723	    -12.63532554	     -1.36442513	      1.46493251	      0.54518169
      2.26000000	     -5.24081823	     -8.24074220	     23.65527174	      0.55156808	      0.93746414	      0.58046418	     10.43116388	     -0.38653067	     -4.93589013	    -58.65607046	     -2.97653303	     13.26429148	     31.36332845	     -0.62020156	     -5.67204226	    -26.82510965	      5.33089385	    -12.75125127	     -1.45891329	      1.52543440	      0.24649158
      2.27000000	     -5.00554591	     -8.18230729	     24.41119290	      0.55852033	      0.93893806	      0.57348862	     11.33116174	     -0.77382116	     -5.17264269	    -59.57404279	     -2.35088493	     12.41354405	     30.39649329	     -0.12719467	     -5.13676914	    -26.55401783	      5.78272736	    -12.81848590	     -1.53624320	      1.59747825	     -0.05114770
      2.28000000	     -4.75701104	     -8.12426292	     25.18700710	      0.56542512	      0.94040619	      0.56644966	     12.17800529	     -1.15187234	     -5.39629535	    -60.27737538	     -1.70160485	     11.53137677	     29.38883170	      0.34959377	     -4.58207467	    -26.23803227	      6.21063344	    -12.86037960	     -1.59754217	      1.68429361	     -0.36016862
      2.29000000	     -4.49551825	     -8.05909287	     25.99043420	      0.57225429	      0.94184498	      0.55933807	     12.96955770	     -1.52923937	     -5.61260346	    -60.77479489	     -1.03508948	     10.69693974	     28.35136814	      0.82223447	     -3.98460980	    -25.90055567	      6.62118042	    -12.87592513	     -1.65165664	      1.77672174	     -0.66586826
      2.30000000	     -4.22665354	     -7.99684745	     26.81269973	      0.57908249	      0.94325520	      0.55215643	     13.69843053	     -1.88824190	     -5.81893119	    -61.04941735	     -0.33722421	      9.79933676	     27.27709589	      1.26854212	     -3.39143237	    -25.51606292	      7.02698565	    -12.87294050	     -1.67831974	      1.88046415	     -0.99421441
      2.31000000	     -3.94813161	     -7.92728113	     27.66486596	      0.58585191	      0.94461183	      0.54490198	     14.36997307	     -2.24622458	     -6.02960931	    -61.12775636	      0.38229943	      8.94781684	     26.17728029	      1.70771097	     -2.75347983	    -25.11337964	      7.40265424	    -12.84999699	     -1.69289633	      1.98507449	     -1.31404175
      2.32000000	     -3.66806404	     -7.84933350	     28.55165633	      0.59253409	      0.94590800	      0.53758403	     14.99435884	     -2.59974176	     -6.23004525	    -61.01782381	      1.12473281	      8.23530135	     25.05308171	      2.14830424	     -2.04373181	    -24.67977437	      7.75062984	    -12.81296202	     -1.69544843	      2.08422214	     -1.64295186
      2.33000000	     -3.37234280	     -7.76498268	     29.44662235	      0.59922725	      0.94713386	      0.53023191	     15.54862215	     -2.93011410	     -6.42182534	    -60.71892345	      1.92985997	      7.36798925	     23.90907022	      2.54788760	     -1.37996939	    -24.25442309	      8.12953202	    -12.76657885	     -1.68877268	      2.18452961	     -1.96254635
      2.34000000	     -3.07410635	     -7.67436698	     30.37390508	      0.60581955	      0.94828876	      0.52281869	     16.06193306	     -3.25066034	     -6.60648292	    -60.25527753	      2.73748642	      6.64517884	     22.74257303	      2.94069539	     -0.65034769	    -23.80065689	      8.47441979	    -12.70257974	     -1.67288601	      2.28483740	     -2.27767886
      2.35000000	     -2.78432652	     -7.58108332	     31.33386821	      0.61233577	      0.94935371	      0.51536826	     16.54621890	     -3.55437970	     -6.77774844	    -59.63893933	      3.54473625	      6.06321359	     21.56978001	      3.32100826	      0.13058187	    -23.32869859	      8.79148435	    -12.62133272	     -1.63368723	      2.37678615	     -2.59570078
      2.36000000	     -2.47758300	     -7.47711834	     32.30015449	      0.61878045	      0.95034165	      0.50792619	     16.97663470	     -3.81883588	     -6.91306197	    -58.87694046	      4.38941061	      5.33963177	     20.38111363	      3.66017123	      0.87773084	    -22.86738934	      9.13767099	    -12.49854347	     -1.61018276	      2.46965043	     -2.90409840
      2.37000000	     -2.18524985	     -7.37836831	     33.30413776	      0.62512092	      0.95122351	      0.50047322	     17.39830606	     -4.05326133	     -7.02876171	    -57.99206223	      5.19337117	      4.73998212	     19.20427065	      3.97973981	      1.67970349	    -22.39732630	      9.45712540	    -12.34324429	     -1.55998255	      2.55717945	     -3.21251234
      2.38000000	     -1.89842832	     -7.28692869	     34.34485008	      0.63135168	      0.95200728	      0.49301496	     17.80741695	     -4.24885068	     -7.12333306	    -56.99621259	      5.94147300	      4.20851681	     18.03587558	      4.26866355	      2.52603174	    -21.92487410	      9.76121573	    -12.16091969	     -1.49258256	      2.64760756	     -3.51322935
      2.39000000	     -1.61429363	     -7.19902413	     35.41311130	      0.63746497	      0.95268984	      0.48560984	     18.21298612	     -4.38492716	     -7.15425818	    -55.91612619	      6.64549329	      3.66786061	     16.88626375	      4.52140230	      3.39368367	    -21.47150896	     10.06959045	    -11.94367112	     -1.42210538	      2.73537256	     -3.83674380
      2.40000000	     -1.33762521	     -7.12674305	     36.51144495	      0.64345332	      0.95326102	      0.47826005	     18.63414781	     -4.46616237	     -7.13918989	    -54.77223732	      7.30552792	      3.16556197	     15.76955990	      4.73019919	      4.28133093	    -21.03883616	     10.38306293	    -11.70882219	     -1.33599616	      2.82848894	     -4.15023872
      2.41000000	     -1.10667676	     -7.07405852	     37.65760063	      0.64926136	      0.95365640	      0.47097489	     19.12420428	     -4.52214280	     -7.07497662	    -53.60944312	      7.95743313	      2.86043838	     14.73637250	      4.92623330	      5.20837505	    -20.64706046	     10.68429619	    -11.53618104	     -1.20260600	      2.90284760	     -4.51028445
      2.42000000	     -0.81092525	     -7.03062540	     38.80531993	      0.65502103	      0.95407583	      0.46379477	     19.57097003	     -4.45176704	     -6.90141501	    -52.39383209	      8.46225417	      2.45791435	     13.65020645	      5.02821632	      6.15974343	    -20.24293230	     11.00598260	    -11.28088962	     -1.12788175	      3.02171351	     -4.80256519
      2.43000000	     -0.59428979	     -7.01196910	     40.01345633	      0.66054685	      0.95427339	      0.45669760	     20.13741930	     -4.39591640	     -6.68848721	    -51.21077089	      8.96434139	      2.32676883	     12.69123532	      5.14482260	      7.17782100	    -19.89357379	     11.29114767	    -11.15377857	     -0.97903123	      3.10020449	     -5.17021640
      2.44000000	     -0.35093242	     -7.00288506	     41.23376465	      0.66597072	      0.95443461	      0.44970552	     20.70672612	     -4.26914971	     -6.39424895	    -50.02248272	      9.37306494	      2.24549777	     11.72619867	      5.19865073	      8.21815370	    -19.54440356	     11.58062361	    -11.03438240	     -0.86158638	      3.19870862	     -5.51263328
      2.45000000	     -0.11427904	     -6.99813931	     42.47437519	      0.67126484	      0.95451687	      0.44279731	     21.30766872	     -4.11653596	     -6.04060781	    -48.85225864	      9.70427583	      2.22877051	     10.78579588	      5.22281154	      9.28441228	    -19.20423349	     11.86034782	    -10.93823836	     -0.74850068	      3.29023018	     -5.85204103
      2.46000000	      0.11880411	     -6.99494495	     43.72826660	      0.67644338	      0.95453203	      0.43596668	     21.93345741	     -3.94646368	     -5.63723425	    -47.70356853	      9.94645807	      2.26724273	      9.86101673	      5.21439950	     10.36438552	    -18.86403682	     12.13590203	    -10.86554475	     -0.64476590	      3.37683373	     -6.18729450
      2.47000000	      0.33840585	     -6.99287488	     44.99652426	      0.68149007	      0.95447385	      0.42921441	     22.59182236	     -3.77706589	     -5.19995778	    -46.58250288	     10.08348353	      2.33872487	      8.96067569	      5.18426785	     11.47389021	    -18.52538503	     12.39191744	    -10.81379917	     -0.54486218	      3.45028954	     -6.51445176
      2.48000000	      0.55808993	     -6.98429885	     46.27084832	      0.68644663	      0.95436766	      0.42250880	     23.25587326	     -3.61083708	     -4.74419093	    -45.48057400	     10.10801749	      2.43290193	      8.05997435	      5.12420200	     12.58991178	    -18.17651520	     12.64789533	    -10.77799546	     -0.45949909	      3.51915534	     -6.83452627
      2.49000000	      0.77666158	     -6.96500653	     47.54622910	      0.69132493	      0.95422432	      0.41585407	     23.91660974	     -3.45758885	     -4.28766697	    -44.38929944	     10.00990615	      2.54152185	      7.15584879	      5.03602075	     13.71030398	    -17.81489791	     12.90186468	    -10.75601539	     -0.39248257	      3.57739114	     -7.13721019
      2.50000000	      0.98442886	     -6.93612476	     48.81041003	      0.69612722	      0.95403125	      0.40923494	     24.58507852	     -3.32376320	     -3.82609417	    -43.31512599	      9.76280678	      2.65069659	      6.25956168	      4.92877920	     14.83331541	    -17.45126320	     13.12739027	    -10.73796184	     -0.33339281	      3.62329786	     -7.41444525
      2.51000000	      1.20181736	     -6.88439821	     50.05578060	      0.70090097	      0.95382110	      0.40262986	     25.21933980	     -3.20485166	     -3.38342417	    -42.23713400	      9.39370838	      2.77421589	      5.33561703	      4.78975491	     15.93724107	    -17.06850922	     13.37012290	    -10.73792773	     -0.30733148	      3.66309937	     -7.66483929
      2.52000000	      1.42662602	     -6.80477951	     51.27486769	      0.70564947	      0.95359050	      0.39602565	     25.82011298	     -3.10230916	     -2.95640665	    -41.16246705	      8.89019353	      2.91342887	      4.38200007	      4.62503854	     17.03032425	    -16.67170353	     13.61061828	    -10.75573715	     -0.31402639	      3.69656457	     -7.88614143
      2.53000000	      1.63721992	     -6.71216835	     52.46841234	      0.71034812	      0.95331877	      0.38944872	     26.40976745	     -3.02293345	     -2.55455449	    -40.07951230	      8.24438726	      3.06520194	      3.44142321	      4.44704545	     18.10839587	    -16.28420046	     13.79293255	    -10.76429807	     -0.33325698	      3.71495622	     -8.07878182
      2.54000000	      1.85338805	     -6.59107857	     53.63237841	      0.71504868	      0.95302451	      0.38287211	     26.95258113	     -2.95888306	     -2.18969845	    -38.97954327	      7.50539638	      3.24949409	      2.47435881	      4.24446349	     19.16359953	    -15.88926575	     13.98394165	    -10.77999751	     -0.38611335	      3.72497446	     -8.24433541
      2.55000000	      2.06738855	     -6.44825512	     54.77040708	      0.71974645	      0.95269723	      0.37631881	     27.45646147	     -2.91152672	     -1.86967464	    -37.85848673	      6.69900741	      3.47631306	      1.49791215	      4.02035390	     20.19553065	    -15.49453319	     14.17261281	    -10.79515648	     -0.46725015	      3.72379299	     -8.38874761
